<svg xmlns="http://www.w3.org/2000/svg" width="800" height="360" viewBox="0 0 800 360"><defs><filter id="soft"><feGaussianBlur stdDeviation="7"/></filter></defs><rect x="95" y="49" width="610" height="242" rx="24" fill="#fffdf9" stroke="#d3c7bb" stroke-width="2"/><circle cx="154" cy="129" r="32" fill="#294d66"/><path d="m148 115 21 14-21 14Z" stroke="#fffdf9" stroke-width="1" fill="#fffdf9" stroke-linecap="round" stroke-linejoin="round"/><rect x="221" y="116.5" width="9" height="25" rx="4.5" fill="#294d66" stroke="none" stroke-width="2"/><rect x="250" y="104.5" width="9" height="49" rx="4.5" fill="#294d66" stroke="none" stroke-width="2"/><rect x="279" y="93.5" width="9" height="71" rx="4.5" fill="#294d66" stroke="none" stroke-width="2"/><rect x="308" y="76.0" width="9" height="106" rx="4.5" fill="#294d66" stroke="none" stroke-width="2"/><rect x="337" y="98.0" width="9" height="62" rx="4.5" fill="#294d66" stroke="none" stroke-width="2"/><rect x="366" y="110.5" width="9" height="37" rx="4.5" fill="#294d66" stroke="none" stroke-width="2"/><rect x="395" y="89.0" width="9" height="80" rx="4.5" fill="#294d66" stroke="none" stroke-width="2"/><rect x="424" y="69.5" width="9" height="119" rx="4.5" fill="#294d66" stroke="none" stroke-width="2"/><rect x="453" y="87.5" width="9" height="83" rx="4.5" fill="#294d66" stroke="none" stroke-width="2"/><rect x="482" y="104.5" width="9" height="49" rx="4.5" fill="#294d66" stroke="none" stroke-width="2"/><rect x="511" y="115.5" width="9" height="27" rx="4.5" fill="#294d66" stroke="none" stroke-width="2"/><rect x="540" y="98.0" width="9" height="62" rx="4.5" fill="#294d66" stroke="none" stroke-width="2"/><rect x="569" y="109.5" width="9" height="39" rx="4.5" fill="#294d66" stroke="none" stroke-width="2"/><rect x="598" y="121.5" width="9" height="15" rx="4.5" fill="#294d66" stroke="none" stroke-width="2"/><rect x="126" y="223" width="546" height="7" rx="3.5" fill="#deebee" stroke="none" stroke-width="2"/><rect x="126" y="223" width="233" height="7" rx="3.5" fill="#294d66" stroke="none" stroke-width="2"/><circle cx="359" cy="226" r="9" fill="#294d66"/><text x="126" y="264" font-family="Arial,sans-serif" font-size="19" font-weight="500" fill="#302832" text-anchor="start">Read along. Take your time.</text></svg>
